<svg width="194" height="69" viewBox="0 0 194 69" fill="none" xmlns="http://www.w3.org/2000/svg">
<path d="M66.6429 48.3052H79.0515C79.2682 48.3043 79.4843 48.2823 79.6967 48.2394C79.9181 48.1902 80.1255 48.0915 80.3035 47.9508C80.4814 47.8101 80.6252 47.631 80.7242 47.4269C80.8369 47.1903 80.9057 46.9353 80.9274 46.6742C80.997 46.2734 80.9599 45.8613 80.8198 45.4793C80.4733 44.7624 79.5772 44.637 78.8722 44.637H66.6429V48.3052ZM66.6429 60.0983H79.7863C80.0706 60.0987 80.3544 60.0747 80.6346 60.0267C81.012 59.9274 81.344 59.702 81.5756 59.3879C81.8071 59.0738 81.9241 58.6899 81.9072 58.3001C81.9072 57.2068 81.2141 56.5078 79.9715 56.46H66.6489L66.6429 60.0983ZM59.4379 36.5478L79.3083 36.6075C80.9954 36.6635 82.6612 37.0007 84.2371 37.6052C85.2621 38.0483 86.1508 38.7559 86.8122 39.6556C87.4736 40.5553 87.8839 41.6147 88.0009 42.7252V42.7909C88.1982 44.1654 88.18 45.5622 87.9471 46.9311C87.505 49.5179 86.0354 51.6268 82.8869 52.3617L83.6576 52.5887C87.2123 53.5147 88.6461 55.6177 89.0046 59.0469C89.1405 60.2802 89.035 61.5281 88.6939 62.7211C87.971 65.1824 86.2206 66.5506 83.9145 67.3392C81.6967 68.0098 79.3836 68.3105 77.068 68.2293H59.4379V36.5478ZM0 21.1043C0.0537684 21.8033 0.0657169 22.4485 0.161305 23.0878C0.800551 27.1563 2.92142 30.1075 6.733 31.7445C8.88998 32.6217 11.1972 33.0701 13.5257 33.0648C16.5487 33.1365 19.5418 32.9155 22.3915 31.8042C25.2413 30.693 27.2546 28.7574 28.1448 25.7583C28.5137 24.4868 28.6294 23.1552 28.4853 21.8392C28.4147 20.6092 28.0349 19.4169 27.3812 18.3726C26.7275 17.3283 25.8209 16.4658 24.7454 15.8649C23.3167 15.0234 21.7416 14.4599 20.1034 14.2041C17.415 13.8217 14.7266 13.5588 12.0083 13.1705C10.9608 13.0311 9.93627 12.7539 8.9614 12.3461C8.67455 12.2238 8.42588 12.0266 8.24143 11.7752C8.05697 11.5238 7.94353 11.2274 7.91299 10.9171C7.88244 10.6068 7.93592 10.2939 8.06782 10.0114C8.19972 9.72886 8.40518 9.48699 8.66268 9.31113C9.12444 8.95812 9.65279 8.70208 10.216 8.55838C12.343 8.09494 14.5345 8.00599 16.6921 8.29551C17.094 8.34781 17.4929 8.42159 17.8869 8.51656C19.7151 8.96463 21.0234 9.87271 21.119 11.9518H28.2881C28.5211 9.83089 27.5234 6.65259 26.1075 4.78264C24.5566 2.75881 22.3563 1.33059 19.8764 0.738065C16.2692 -0.197155 12.4892 -0.244303 8.85983 0.600657C6.94647 0.952473 5.1503 1.77358 3.63235 2.99036C0.806526 5.38007 -0.167279 8.48668 0.382353 12.0832C0.54404 13.3934 1.03109 14.6423 1.79912 15.7161C2.56714 16.7899 3.5917 17.6544 4.77941 18.2307C5.92622 18.8856 7.17716 19.3383 8.47748 19.5689C11.2734 19.9453 14.0813 20.2261 16.8773 20.5846C17.8507 20.7231 18.8145 20.9226 19.7629 21.182C20.0524 21.2329 20.3173 21.3773 20.5169 21.5931C20.7165 21.8089 20.8399 22.0842 20.8681 22.3768C20.8994 22.679 20.8441 22.9837 20.7087 23.2556C20.5733 23.5274 20.3634 23.7552 20.1034 23.9122C19.6843 24.1721 19.2294 24.3694 18.7532 24.4977C16.5976 24.9817 14.3752 25.0949 12.1815 24.8323C11.2025 24.7421 10.2401 24.5211 9.31985 24.1751C8.78013 23.9802 8.30478 23.64 7.94632 23.1919C7.58786 22.7438 7.36023 22.2054 7.2886 21.636C7.2886 21.4628 7.24678 21.2895 7.22288 21.1043H0ZM54.8079 18.8102V14.2817H38.5758V9.74128H55.7279V0.738065H31.347V32.3658H56.1581V23.3507H38.5579V18.8102H54.8079ZM161.305 50.0735C161.333 48.6951 161.203 47.318 160.917 45.9692C159.943 41.1002 157.123 37.892 152.344 36.506C149.495 35.7205 146.504 35.606 143.603 36.1714C138.687 37.0377 135.239 39.7022 133.525 44.4876C132.912 46.2753 132.548 48.1388 132.443 50.0257C132.177 53.1107 132.429 56.2186 133.19 59.2201C134.385 63.5933 137.044 66.67 141.411 68.0561C145.129 69.2566 149.128 69.2754 152.858 68.1098C154.443 67.6587 155.909 66.8608 157.149 65.7739C158.389 64.6869 159.372 63.3381 160.027 61.8249C160.708 60.2423 161.128 58.5596 161.269 56.8424C161.335 56.1374 161.353 55.4265 161.395 54.7036H154.226C154.156 55.2082 154.018 55.7008 153.813 56.1673C153.515 56.8259 153.077 57.4115 152.529 57.883C151.981 58.3546 151.337 58.7009 150.641 58.8975C148.374 59.6667 145.912 59.6393 143.663 58.8199C141.608 58.085 139.636 56.3824 139.636 52.3975C139.636 48.4127 141.56 46.3635 144.661 45.6466C146.28 45.2774 147.959 45.2509 149.59 45.5689C150.733 45.7252 151.795 46.2491 152.615 47.0617C153.435 47.8742 153.969 48.9312 154.136 50.0735H161.305ZM119.987 53.7298C119.103 50.9577 118.243 48.2693 117.37 45.557H116.438L113.828 53.7298H119.987ZM132.742 68.2353H124.635L122.903 62.7987H110.954C110.506 64.2983 109.693 66.7477 109.221 68.2413H101.288L111.707 36.5777H122.377C125.764 46.9311 132.754 68.2413 132.754 68.2413M98.9935 36.5777H91.8244V68.2413H98.9935V36.5777ZM31.347 53.6043C31.3254 55.6594 31.5643 57.709 32.0579 59.704C33.199 64.1907 37.1301 68.9582 43.7436 68.9582C50.3571 68.9582 53.9595 64.6448 55.25 60.4867C55.8708 58.4194 56.177 56.2705 56.1581 54.1121V36.5597H48.989V52.977C48.989 53.4629 48.9651 53.9468 48.9173 54.4288C48.6902 56.8185 47.2266 59.4472 43.7914 59.4472C40.3562 59.4472 39.2629 57.2546 38.8506 55.2652C38.7076 54.5952 38.6296 53.9129 38.6176 53.2279V36.5H31.3529L31.347 53.6043ZM82.8929 18.8102V14.2817H66.6608V9.74128H83.8129V0.738065H59.432V32.3658H84.2371V23.3507H66.6429V18.8102H82.8929ZM192.867 49.1654C192.694 47.1843 192.211 45.2427 191.433 43.4122C190.717 41.7007 189.605 40.1828 188.19 38.9826C186.775 37.7823 185.096 36.9337 183.29 36.506C181.593 36.0579 179.843 35.8369 178.087 35.8488C176.33 35.847 174.58 36.078 172.883 36.5359C171.078 36.9636 169.399 37.8122 167.984 39.0124C166.568 40.2127 165.457 41.7305 164.74 43.4421C163.963 45.2726 163.479 47.2142 163.307 49.1953C162.92 52.5251 163.14 55.8975 163.958 59.1484C165.117 63.4678 167.715 66.4968 171.981 67.9963C173.956 68.6306 176.013 68.9689 178.087 69C180.16 68.9689 182.218 68.6306 184.193 67.9963C188.458 66.4968 191.057 63.4678 192.216 59.1484C193.037 55.8879 193.258 52.5051 192.867 49.1654ZM185.698 53.7836C185.346 56.2927 183.798 59.5009 178.075 59.5009C172.352 59.5009 170.816 56.2927 170.464 53.7716C170.294 52.6288 170.335 51.4647 170.583 50.3364C171.109 47.9467 172.871 45.312 178.087 45.312C183.302 45.312 185.071 47.9347 185.596 50.3364C185.84 51.4654 185.878 52.629 185.71 53.7716L185.698 53.7836ZM0 56.932C0.0537684 57.625 0.0657169 58.2762 0.161305 58.9154C0.800551 62.9839 2.92142 65.9352 6.733 67.5722C8.88998 68.4493 11.1972 68.8978 13.5257 68.8925C16.5487 68.9642 19.5418 68.7431 22.3915 67.6259C23.7654 67.1557 25.0056 66.3612 26.0071 65.3098C27.0086 64.2584 27.7419 62.981 28.1448 61.5859C28.5126 60.3142 28.6283 58.9829 28.4853 57.6668C28.2164 55.074 27.0813 53.0009 24.7454 51.6926C23.3167 50.8511 21.7416 50.2876 20.1034 50.0317C17.415 49.6494 14.7266 49.3865 12.0083 48.9982C10.9608 48.8587 9.93627 48.5815 8.9614 48.1737C8.67455 48.0514 8.42588 47.8543 8.24143 47.6029C8.05697 47.3515 7.94353 47.0551 7.91299 46.7447C7.88244 46.4344 7.93592 46.1216 8.06782 45.8391C8.19972 45.5565 8.40518 45.3146 8.66268 45.1388C9.12444 44.7858 9.65279 44.5297 10.216 44.386C12.343 43.9226 14.5345 43.8336 16.6921 44.1232C17.0945 44.1724 17.4935 44.2463 17.8869 44.3442C19.733 44.7624 21.0414 45.7004 21.1369 47.7794H28.3061C28.5391 45.6586 27.5414 42.4802 26.1255 40.6103C24.57 38.583 22.3628 37.1545 19.8764 36.5657C16.2678 35.6364 12.4877 35.5954 8.85983 36.4462C6.94563 36.7954 5.14884 37.6168 3.63235 38.8359C0.806526 41.2257 -0.167279 44.3143 0.382353 47.9109C0.54404 49.2211 1.03109 50.47 1.79912 51.5438C2.56714 52.6175 3.5917 53.482 4.77941 54.0584C5.92525 54.7141 7.17669 55.165 8.47748 55.3906C11.2734 55.773 14.0813 56.0538 16.8773 56.4122C17.8507 56.5508 18.8145 56.7503 19.7629 57.0097C20.0524 57.0606 20.3173 57.205 20.5169 57.4208C20.7165 57.6366 20.8399 57.9119 20.8681 58.2045C20.9006 58.5076 20.8459 58.8136 20.7104 59.0866C20.5749 59.3597 20.3644 59.5884 20.1034 59.7459C19.685 60.0099 19.2301 60.2112 18.7532 60.3433C16.5976 60.8273 14.3752 60.9405 12.1815 60.6779C11.2025 60.5877 10.2401 60.3666 9.31985 60.0207C8.78013 59.8258 8.30478 59.4856 7.94632 59.0375C7.58786 58.5894 7.36023 58.051 7.2886 57.4816C7.2886 57.3084 7.24678 57.1351 7.22288 56.9499H0" fill="#EEE2CD"/>
</svg>
