<svg width="202" height="72" viewBox="0 0 202 72" fill="none" xmlns="http://www.w3.org/2000/svg">
<path d="M69.7309 50.4054H82.7144C82.9411 50.4045 83.1672 50.3815 83.3895 50.3368C83.6212 50.2854 83.8382 50.1824 84.0244 50.0356C84.2106 49.8888 84.3611 49.7019 84.4647 49.489C84.5825 49.2421 84.6545 48.976 84.6772 48.7035C84.7501 48.2852 84.7112 47.8552 84.5647 47.4567C84.2021 46.7086 83.2645 46.5777 82.5268 46.5777H69.7309V50.4054ZM69.7309 62.7113H83.4832C83.7807 62.7117 84.0777 62.6867 84.3709 62.6365C84.7658 62.533 85.1132 62.2978 85.3554 61.97C85.5976 61.6422 85.7201 61.2417 85.7024 60.8349C85.7024 59.6941 84.9773 58.9647 83.677 58.9148H69.7371L69.7309 62.7113ZM62.192 38.1368L82.9832 38.1992C84.7483 38.2575 86.4913 38.6094 88.1403 39.2403C89.2128 39.7026 90.1427 40.441 90.8347 41.3798C91.5268 42.3186 91.956 43.424 92.0785 44.5828V44.6514C92.2849 46.0856 92.2659 47.5432 92.0222 48.9716C91.5597 51.6709 90.0219 53.8715 86.7276 54.6383L87.5339 54.8752C91.2533 55.8414 92.7536 58.0358 93.1287 61.6141C93.2708 62.901 93.1604 64.2032 92.8036 65.4481C92.0472 68.0165 90.2157 69.4441 87.8027 70.2669C85.4822 70.9667 83.0619 71.2805 80.639 71.1958H62.192V38.1368ZM0 22.0219C0.0562598 22.7513 0.0687619 23.4246 0.168779 24.0916C0.837645 28.337 3.05678 31.4166 7.04497 33.1247C9.3019 34.04 11.716 34.508 14.1525 34.5024C17.3155 34.5772 20.4473 34.3466 23.4291 33.187C26.4108 32.0275 28.5175 30.0077 29.4489 26.8782C29.8349 25.5514 29.9559 24.162 29.8052 22.7887C29.7313 21.5052 29.3339 20.2611 28.6499 19.1714C27.9659 18.0817 27.0174 17.1817 25.892 16.5547C24.3971 15.6766 22.7491 15.0886 21.0349 14.8216C18.2219 14.4226 15.4089 14.1483 12.5647 13.7431C11.4686 13.5977 10.3967 13.3084 9.37663 12.8828C9.0765 12.7553 8.8163 12.5495 8.6233 12.2872C8.4303 12.0248 8.3116 11.7156 8.27964 11.3917C8.24768 11.0679 8.30364 10.7415 8.44165 10.4467C8.57966 10.1519 8.79464 9.89946 9.06407 9.71597C9.54723 9.3476 10.1001 9.08043 10.6894 8.93048C12.9149 8.4469 15.208 8.35407 17.4655 8.65618C17.8861 8.71075 18.3034 8.78775 18.7158 8.88684C20.6286 9.35439 21.9976 10.302 22.0976 12.4714H29.5989C29.8427 10.2583 28.7988 6.94183 27.3172 4.99058C25.6945 2.87876 23.3922 1.38844 20.7974 0.770155C17.0231 -0.205727 13.0679 -0.254925 9.27036 0.626773C7.26834 0.993885 5.38895 1.85069 3.80066 3.12038C0.843896 5.61398 -0.17503 8.85567 0.400069 12.6085C0.569249 13.9757 1.07887 15.279 1.88248 16.3994C2.68609 17.5199 3.75813 18.4219 5.00087 19.0233C6.20082 19.7067 7.50972 20.1791 8.87029 20.4198C11.7958 20.8125 14.7338 21.1055 17.6593 21.4796C18.6778 21.6241 19.6862 21.8323 20.6786 22.103C20.9815 22.1561 21.2587 22.3068 21.4676 22.532C21.6764 22.7571 21.8055 23.0444 21.835 23.3498C21.8678 23.665 21.8099 23.983 21.6683 24.2667C21.5266 24.5504 21.3069 24.788 21.0349 24.9519C20.5964 25.2231 20.1204 25.4289 19.6222 25.5628C17.3666 26.0679 15.0413 26.186 12.746 25.9119C11.7216 25.8178 10.7146 25.5872 9.75169 25.2262C9.18696 25.0229 8.68959 24.6678 8.31452 24.2002C7.93945 23.7327 7.70128 23.1708 7.62632 22.5767C7.62632 22.3959 7.58257 22.2152 7.55756 22.0219H0ZM57.3475 19.628V14.9027H40.3633V10.1648H58.3101V0.770155H32.7994V33.773H58.7602V24.3659H40.3445V19.628H57.3475ZM168.779 52.2506C168.809 50.8123 168.672 49.3753 168.373 47.9679C167.354 42.8872 164.404 39.5395 159.403 38.0932C156.422 37.2736 153.292 37.1541 150.257 37.7441C145.113 38.648 141.506 41.4284 139.712 46.4218C139.071 48.2873 138.69 50.2318 138.58 52.2008C138.301 55.4199 138.566 58.6629 139.362 61.7949C140.612 66.3582 143.394 69.5687 147.963 71.015C151.854 72.2678 156.038 72.2874 159.94 71.0711C161.6 70.6004 163.133 69.7678 164.431 68.6336C165.728 67.4994 166.756 66.092 167.442 64.513C168.155 62.8616 168.594 61.1056 168.742 59.3138C168.811 58.5782 168.829 57.8363 168.873 57.082H161.372C161.299 57.6085 161.154 58.1225 160.94 58.6093C160.629 59.2966 160.17 59.9076 159.597 60.3997C159.023 60.8918 158.349 61.2531 157.621 61.4583C155.249 62.261 152.673 62.2324 150.32 61.3772C148.169 60.6105 146.107 58.8338 146.107 54.6757C146.107 50.5176 148.119 48.3793 151.364 47.6312C153.058 47.2459 154.815 47.2183 156.521 47.5502C157.718 47.7133 158.829 48.26 159.687 49.1078C160.545 49.9557 161.103 51.0587 161.278 52.2506H168.779ZM125.547 56.0659C124.622 53.1733 123.721 50.368 122.809 47.5377H121.834L119.102 56.0659H125.547ZM138.893 71.202H130.41L128.597 65.5291H116.095C115.626 67.0938 114.776 69.6498 114.282 71.2083H105.981L116.883 38.168H128.047C131.592 48.9716 138.905 71.2083 138.905 71.2083M103.58 38.168H96.0792V71.2083H103.58V38.168ZM32.7994 55.9349C32.7769 58.0794 33.0268 60.2181 33.5433 62.2999C34.7373 66.9816 38.8505 71.9564 45.7704 71.9564C52.6904 71.9564 56.4598 67.4554 57.81 63.1165C58.4597 60.9594 58.78 58.7171 58.7602 56.4648V38.1493H51.2589V55.2804C51.2589 55.7874 51.2339 56.2924 51.1839 56.7952C50.9463 59.2888 49.4148 62.0318 45.8205 62.0318C42.2261 62.0318 41.0821 59.7439 40.6508 57.668C40.5011 56.9689 40.4195 56.257 40.407 55.5422V38.087H32.8057L32.7994 55.9349ZM86.7338 19.628V14.9027H69.7496V10.1648H87.6965V0.770155H62.1858V33.773H88.1403V24.3659H69.7309V19.628H86.7338ZM201.804 51.3031C201.623 49.2358 201.117 47.2098 200.304 45.2997C199.554 43.5137 198.391 41.9299 196.91 40.6775C195.429 39.425 193.673 38.5395 191.783 38.0932C190.007 37.6256 188.176 37.395 186.339 37.4075V37.4075C184.5 37.4056 182.669 37.6466 180.894 38.1244C179.005 38.5707 177.248 39.4562 175.767 40.7086C174.286 41.961 173.124 43.5449 172.374 45.3309C171.56 47.241 171.054 49.2669 170.873 51.3342C170.469 54.8088 170.699 58.3278 171.555 61.7201C172.767 66.2273 175.487 69.3879 179.95 70.9527C182.016 71.6146 184.169 71.9675 186.339 72V72C188.508 71.9675 190.661 71.6146 192.727 70.9527C197.19 69.3879 199.91 66.2273 201.122 61.7201C201.982 58.3178 202.212 54.7879 201.804 51.3031V51.3031ZM194.302 56.122C193.934 58.7403 192.315 62.0879 186.326 62.0879C180.338 62.0879 178.731 58.7403 178.362 56.1095C178.185 54.917 178.227 53.7023 178.487 52.5249C179.037 50.0313 180.881 47.2821 186.339 47.2821C191.796 47.2821 193.646 50.0189 194.196 52.5249C194.451 53.703 194.491 54.9172 194.315 56.1095L194.302 56.122ZM0 59.4073C0.0562598 60.1304 0.0687619 60.8099 0.168779 61.477C0.837645 65.7223 3.05678 68.802 7.04497 70.5101C9.3019 71.4254 11.716 71.8933 14.1525 71.8878C17.3155 71.9626 20.4473 71.7319 23.4291 70.5662C24.8665 70.0755 26.1642 69.2465 27.2121 68.1493C28.26 67.0522 29.0273 65.7193 29.4489 64.2636C29.8338 62.9366 29.9548 61.5474 29.8052 60.1741C29.5239 57.4685 28.3362 55.3053 25.892 53.9401C24.3971 53.062 22.7491 52.474 21.0349 52.207C18.2219 51.808 15.4089 51.5337 12.5647 51.1285C11.4686 50.983 10.3967 50.6938 9.37663 50.2682C9.0765 50.1406 8.8163 49.9349 8.6233 49.6725C8.4303 49.4102 8.3116 49.1009 8.27964 48.7771C8.24768 48.4533 8.30364 48.1269 8.44165 47.8321C8.57966 47.5372 8.79464 47.2848 9.06407 47.1014C9.54723 46.733 10.1001 46.4658 10.6894 46.3159C12.9149 45.8323 15.208 45.7395 17.4655 46.0416C17.8866 46.093 18.3041 46.17 18.7158 46.2722C20.6473 46.7086 22.0163 47.6873 22.1163 49.8568H29.6176C29.8614 47.6437 28.8175 44.3272 27.336 42.376C25.7085 40.2606 23.399 38.7699 20.7974 38.1555C17.0216 37.1858 13.0664 37.143 9.27036 38.0309C7.26746 38.3952 5.38742 39.2523 3.80066 40.5245C0.843896 43.0181 -0.17503 46.2411 0.400069 49.9939C0.569249 51.3611 1.07887 52.6643 1.88248 53.7848C2.68609 54.9053 3.75813 55.8073 5.00087 56.4087C6.1998 57.093 7.50923 57.5635 8.87029 57.7989C11.7958 58.1979 14.7338 58.4909 17.6593 58.8649C18.6778 59.0095 19.6862 59.2177 20.6786 59.4883C20.9815 59.5415 21.2587 59.6921 21.4676 59.9173C21.6764 60.1425 21.8055 60.4298 21.835 60.7351C21.869 61.0514 21.8118 61.3707 21.67 61.6556C21.5283 61.9405 21.308 62.1792 21.0349 62.3435C20.5971 62.6191 20.1211 62.8291 19.6222 62.9669C17.3666 63.472 15.0413 63.59 12.746 63.316C11.7216 63.2219 10.7146 62.9913 9.75169 62.6303C9.18696 62.4269 8.68959 62.0719 8.31452 61.6043C7.93945 61.1368 7.70128 60.5749 7.62632 59.9808C7.62632 59.8 7.58257 59.6192 7.55756 59.426H0" fill="#EEE2CD"/>
</svg>
